<?xml version="1.0" encoding="utf-8"?>
<!-- Generator: Adobe Illustrator 17.1.0, SVG Export Plug-In . SVG Version: 6.00 Build 0)  -->
<!DOCTYPE svg PUBLIC "-//W3C//DTD SVG 1.1//EN" "http://www.w3.org/Graphics/SVG/1.1/DTD/svg11.dtd">
<svg version="1.1" id="ROW_2" xmlns="http://www.w3.org/2000/svg" xmlns:xlink="http://www.w3.org/1999/xlink" x="0px" y="0px"
	 viewBox="0 0 64 64" style="enable-background:new 0 0 64 64;" xml:space="preserve">
<style type="text/css">
	.st0{fill-rule:evenodd;clip-rule:evenodd;}
</style>
<path id="CIRCLE__x2F__RIGHT_2_" class="st0" d="M32,64C14.3,64,0,49.7,0,32C0,14.3,14.3,0,32,0s32,14.3,32,32
	C64,49.7,49.7,64,32,64z M32,6C17.6,6,6,17.6,6,32c0,14.4,11.6,26,26,26s26-11.6,26-26C58,17.6,46.4,6,32,6z M47,34.2L47,34.2l-10,9
	l0,0c-0.5,0.5-1.2,0.8-2,0.8c-1.7,0-3-1.3-3-3c0-0.9,0.4-1.7,1-2.2l0,0l4.2-3.8H19c-1.7,0-3-1.3-3-3c0-1.7,1.3-3,3-3h18.2L33,25.2
	l0,0c-0.6-0.5-1-1.3-1-2.2c0-1.7,1.3-3,3-3c0.8,0,1.5,0.3,2,0.8l0,0l10,9l0,0c0.6,0.5,1,1.3,1,2.2C48,32.9,47.6,33.7,47,34.2z"/>
</svg>
