<?xml version="1.0" encoding="utf-8"?>
<!-- Generator: Adobe Illustrator 18.0.0, SVG Export Plug-In . SVG Version: 6.00 Build 0)  -->
<!DOCTYPE svg PUBLIC "-//W3C//DTD SVG 1.1//EN" "http://www.w3.org/Graphics/SVG/1.1/DTD/svg11.dtd">
<svg version="1.1" id="Layer_1" xmlns="http://www.w3.org/2000/svg" xmlns:xlink="http://www.w3.org/1999/xlink" x="0px" y="0px"
	 viewBox="0 0 257.1 77.9" enable-background="new 0 0 257.1 77.9" xml:space="preserve">
<g>
	<path fill="#FFFFFF" d="M10.3,36.9H0V24.2h10.6V21c0-15.6,7.1-21,21.1-21c3.8,0,6.7,0.6,8.9,1l-1.1,12.5c-1.5-0.5-2.9-0.8-5.5-0.8
		c-4.5,0-6.2,3.2-6.2,8.3v3.2h12.4v12.7H27.8v39.7H10.3V36.9z"/>
	<rect x="49.3" y="1.2" fill="#FFFFFF" width="17.5" height="75.4"/>
	<rect x="81.8" y="2.4" fill="#FFFFFF" width="17.5" height="13.3"/>
	<rect x="81.8" y="24.2" fill="#FFFFFF" width="17.5" height="52.4"/>
	<path fill="#FFFFFF" d="M151.8,39.2c-3.2-2-6.4-2.9-10.6-2.9c-7.6,0-13.4,5.4-13.4,14.5c0,8.3,6.8,13.8,14.4,13.8
		c4,0,8-0.9,10.9-2.5l0.4,13.5c-4.4,1.5-9.6,2.3-14.3,2.3c-16.7,0-29.4-10.1-29.4-27.4c0-17.4,12.7-27.5,29.4-27.5
		c5.2,0,9.9,0.9,13.9,2.9L151.8,39.2z"/>
	<polygon fill="#FFFFFF" points="160.7,1.2 178.2,1.2 178.2,46.3 178.4,46.3 193,24.2 212.1,24.2 194.5,48.3 213.6,76.7 192.4,76.7 
		178.4,50.7 178.2,50.7 178.2,76.7 160.7,76.7 	"/>
	<path fill="#FFFFFF" d="M256.2,38.7c-1.9-0.6-3.9-0.6-5.9-0.6c-8.2,0-12.7,6.1-12.7,16.4v22.1h-17.5V24.2H236v9.7h0.2
		c3-6.6,7.4-10.9,15-10.9c2,0,4.2,0.3,5.9,0.6L256.2,38.7z"/>
</g>
</svg>
