<?xml version="1.0" encoding="utf-8"?>
<!-- Generator: Adobe Illustrator 18.0.0, SVG Export Plug-In . SVG Version: 6.00 Build 0)  -->
<!DOCTYPE svg PUBLIC "-//W3C//DTD SVG 1.1//EN" "http://www.w3.org/Graphics/SVG/1.1/DTD/svg11.dtd">
<svg version="1.1" id="Layer_1" xmlns="http://www.w3.org/2000/svg" xmlns:xlink="http://www.w3.org/1999/xlink" x="0px" y="0px"
	 viewBox="0 0 274.8 114.9" enable-background="new 0 0 274.8 114.9" xml:space="preserve">
<g>
	<path fill-rule="evenodd" clip-rule="evenodd" fill="#FFFFFF" d="M58.9,73.7v40h9.6V96.9c0-4.5,0.1-10.1,4-13.4
		c2-1.7,4.1-1.9,5-1.9c0.7,0,2.7,0.1,4.3,1.5c2.2,2,2.2,4.8,2.2,5.6c0,0.9,0,1.8,0.1,2.6v22.4h9.5V94.9c0-3.2,0.1-6.5,1.9-9.4
		c2.2-3.5,5.6-4.1,7.1-4.1c6.4,0,6.6,6.2,6.7,7.8v24.5h9.5V88.4c0-3.6-0.1-5.2-0.6-7c-1.7-6.2-7.1-8.9-13.2-8.9
		c-4.7,0-7.5,1.5-9.2,2.6c-2.2,1.4-3,2.6-3.7,3.4c-2.2-4-6.6-6.1-11.1-6.1c-5.6,0-9.9,3-11.3,4.2c-0.4,0.3-0.6,0.6-1.3,1.4l-0.1-4.5
		H58.9z"/>
	<path fill-rule="evenodd" clip-rule="evenodd" fill="#FFFFFF" d="M163.9,93.5c-0.1-12-7.5-17.4-11.8-19.2c-3.8-1.7-7.3-1.8-8.8-1.8
		c-11.9,0-17.1,8.1-18.7,12.1c-0.6,1.4-1.8,4.6-1.8,9c0,12.1,7.6,17.6,11.8,19.5c3.9,1.7,7.4,1.8,9,1.8c11.9,0,17.1-8.3,18.7-12.4
		C163.8,98.7,163.9,95,163.9,93.5z M153.9,93.4c0.2,6.3-3,12.7-10.3,12.7c-6.6,0-9.3-5.4-10-7.4c-0.6-1.8-0.8-3.5-0.8-5.4
		c0-6,2.8-9.3,4.9-10.6c2.2-1.4,4.6-1.5,5.4-1.5C150.1,81.1,153.6,87.1,153.9,93.4z"/>
	<path fill-rule="evenodd" clip-rule="evenodd" fill="#FFFFFF" d="M208.1,93.5c-0.1-12-7.5-17.4-11.8-19.2c-3.8-1.7-7.3-1.8-8.8-1.8
		c-11.9,0-17.1,8.1-18.7,12.1c-0.6,1.4-1.8,4.6-1.8,9c0,12.1,7.6,17.6,11.8,19.5c3.9,1.7,7.4,1.8,9,1.8c11.9,0,17.1-8.3,18.7-12.4
		C208,98.7,208.1,95,208.1,93.5z M198.1,93.4c0.2,6.3-3,12.7-10.3,12.7c-6.6,0-9.3-5.4-10-7.4c-0.6-1.8-0.8-3.5-0.8-5.4
		c0-6,2.8-9.3,4.9-10.6c2.2-1.4,4.6-1.5,5.4-1.5C194.3,81.1,197.9,87.1,198.1,93.4z"/>
	<path fill-rule="evenodd" clip-rule="evenodd" fill="#FFFFFF" d="M221.3,73.7H212v40h9.3V96.6c0-2.3,0-4.3,0.7-6.6
		c2.3-7.4,10-7.4,12-7.4v-9.8h-0.8c-1.1,0-6.3,0.2-9.5,3.3c-1,0.9-1.8,2.1-2.4,3.3V73.7z"/>
	<path fill-rule="evenodd" clip-rule="evenodd" fill="#FFFFFF" d="M274.5,95.6c-0.2-7.8-2.1-12.6-3.9-15.4c-2.1-3-6.8-7.7-15.8-7.7
		c-11.6,0-16.6,7.4-18.3,11.4c-1.3,3-1.8,6.2-1.8,9.6c0,6.2,1.7,11.8,6.2,16.1c5.4,5,11.8,5.4,14.3,5.4c8.2,0,13.6-3.9,15.8-6
		c1.9-1.8,3-3.3,3.7-4.2l-8.2-4.7c-0.6,0.9-1,1.5-1.4,1.8c-1.3,1.4-4.2,3.7-9.1,3.7c-5,0-7.4-2.2-8.7-3.8c-2-2.4-2.4-4.9-2.6-6.1
		H274.5z M245.2,88.6c0.2-1.4,1.3-5.8,5.8-7.7c0.8-0.3,1.9-0.7,4-0.7c5.2,0,7.3,3.2,8.2,5.1c0.6,1.4,0.7,2.7,0.8,3.2L245.2,88.6z"/>
</g>
<g>
	<path fill-rule="evenodd" clip-rule="evenodd" fill="#FFFFFF" d="M36.2,31c-6-7-14.1-7.4-17.2-7.4c-8.6,0-13.4,3.8-15.4,6.9
		c-0.6,0.9-1.8,3.1-1.8,6.2c0.1,8.6,9.3,10.9,11,11.4c2.6,0.6,5.2,1,7.8,1.5c3,0.6,4.2,0.7,5.3,2.2c0.6,0.7,0.6,1.4,0.6,1.7
		c0,0.8-0.4,1.7-1,2.3c-1.6,1.8-4.4,2.4-6.8,2.4c-1.1,0-6.2-0.2-9.7-3.1c-1-0.9-1.5-1.6-1.8-2L0,58.8C1.2,60,2.5,61,3.8,61.9
		c2.5,1.5,7.8,4.1,15.4,4.1c9.8,0,14.7-4.6,16.6-8.2c0.9-1.7,1.4-3.5,1.4-5.4c0-4.9-3-7.7-4.4-8.7c-1.8-1.3-4.2-2-6.3-2.5
		c-2.2-0.5-4.3-0.8-6.5-1.2c-3.2-0.6-5.8-1.2-6.9-2c-0.2-0.2-1.2-1.1-1.3-2.5c0-0.7,0.3-2,1.8-3c1.8-1.2,4.5-1.2,4.9-1.2
		c3.3,0,5.9,0.7,8.4,2.9c0.6,0.6,1.7,1.5,2.5,3.2L36.2,31z"/>
	<path fill-rule="evenodd" clip-rule="evenodd" fill="#FFFFFF" d="M41.2,24.8v53.1h9.6V61.5c4.3,4,8.5,4.5,10.9,4.5
		c3,0,9.5-0.7,14.2-7.4c3.8-5.4,4-11.4,4-13.5c0-8-3.3-13.2-5.4-15.7c-4.6-5.4-10.2-5.8-12.8-5.8c-6.1,0-9.4,3.1-11,4.8v-3.6H41.2z
		 M50.6,44.6c0.2-5.9,2.6-8.9,4.6-10.3c0.8-0.5,2.5-1.4,5-1.4c4.2,0,7.8,2.8,9.1,6.7c0.7,2.2,0.7,4.4,0.7,5.1
		c0,6.1-2.3,9.3-4.6,10.8c-1.4,1-3.3,1.4-5,1.4c-4.8,0-8.1-3.1-9.3-7.6C50.8,47.8,50.6,46.2,50.6,44.6z"/>
	<rect x="84.2" y="24.8" fill-rule="evenodd" clip-rule="evenodd" fill="#FFFFFF" width="9.5" height="40"/>
	<path fill-rule="evenodd" clip-rule="evenodd" fill="#FFFFFF" d="M128.1,49.2c-0.7,1.8-2.8,7.8-9.7,7.8c-5,0-8.3-3.4-9.5-8.1
		c-0.2-0.8-0.6-2.3-0.6-4.4c0-1.4,0-5.8,3-9.3c1.8-2.2,4.1-3.1,6.9-3.1c3.7,0,5.6,1.6,6.7,2.7c0.6,0.6,1.8,1.9,2.4,4.1l8.6-4
		c-2.6-6.2-7.4-9-9.8-9.9c-2.3-1-4.9-1.4-7.4-1.4c-9,0-14,5.2-15.9,7.8c-3,3.8-4.3,8.6-4.3,13.4c0,3.4,0.8,14.5,11.4,19.4
		c3.6,1.6,6.9,1.8,8.3,1.8c6,0,11.9-2.7,15.5-7.6c1.1-1.5,1.9-3.2,2.6-4.9L128.1,49.2z"/>
	<path fill-rule="evenodd" clip-rule="evenodd" fill="#FFFFFF" d="M178.2,46.7c-0.2-7.8-2.1-12.6-3.9-15.4c-2.1-3-6.8-7.7-15.8-7.7
		c-11.6,0-16.6,7.4-18.3,11.4c-1.3,3-1.8,6.2-1.8,9.6c0,6.2,1.7,11.8,6.2,16.1c5.4,5,11.8,5.4,14.3,5.4c8.2,0,13.6-3.9,15.8-6
		c1.9-1.8,3-3.3,3.7-4.2l-8.2-4.7c-0.6,0.9-1,1.5-1.4,1.8c-1.3,1.4-4.2,3.7-9.1,3.7c-5,0-7.4-2.2-8.7-3.8c-2-2.4-2.4-4.9-2.6-6.1
		H178.2z M148.9,39.7c0.2-1.4,1.3-5.8,5.8-7.7c0.8-0.3,1.9-0.7,4-0.7c5.2,0,7.3,3.2,8.2,5.1c0.6,1.4,0.7,2.7,0.8,3.2L148.9,39.7z"/>
	<path fill-rule="evenodd" clip-rule="evenodd" fill="#FFFFFF" d="M191.6,24.8h-9.3v40h9.3V47.7c0-2.3,0-4.3,0.7-6.6
		c2.3-7.4,10-7.4,12-7.4v-9.8h-0.8c-1.1,0-6.3,0.2-9.5,3.3c-1,0.9-1.8,2.1-2.4,3.3V24.8z"/>
	<rect x="84.2" y="11.5" fill-rule="evenodd" clip-rule="evenodd" fill="#FFFFFF" width="9.5" height="9.7"/>
</g>
<path fill="#828175" d="M244.2,40.9c-0.1,7.7-1.4,17-11.8,17c-6.5,0-11.8-5.3-11.8-11.8c0-6.5,5.2-12.4,11.7-12.5l-0.1-9.3l0-0.4
	c0,0,0,0,0,0v0c-0.1,0-0.1,0-0.2,0c-3.5-0.2-6.3-3.5-6.3-7c0-3.6,2.9-6.5,6.5-6.5c3.6,0,6.5,2.9,6.5,6.5l10.4-0.1
	c-0.1-9.3-7.6-16.9-17-16.9c-9.4,0-17,7.6-17,17c0,4.3,1.6,8.2,4.3,11c-5.7,4-9.4,10.6-9.4,18.2c0,12.3,9.9,22.2,22.2,22.2
	c10.5,0,19.2-7.3,21.6-17l5.7,0.3V40.9H244.2z"/>
</svg>
